#!OML:ASF F:\VICON\USERDATA\INSTALL\rory3\rory3.ASF
:FULLY-SPECIFIED
:DEGREES
1367
root 1.89703 11.6078 -4.42725 -169.816 228.67 -176.499
lowerback 34.0271 1.14098 0.94394
upperback 10.23 1.45102 3.66436
thorax -6.13923 0.377097 2.86312
lowerneck -12.0426 -0.374334 -9.53286
upperneck 32.1621 1.46448 -0.237785
head 12.676 -0.643939 1.7439
rclavicle 1.74931e-014 -1.35174e-014
rhumerus -43.8753 48.4855 -76.1225
rradius 110.845
rwrist 50.6829
rhand -46.2089 12.4501
rfingers 7.12502
rthumb -18.9466 -16.6471
lclavicle 1.74931e-014 -1.35174e-014
lhumerus -36.7884 -39.1217 87.0873
lradius 90.4575
lwrist -20.4277
lhand -52.1745 19.1606
lfingers 7.12502
lthumb -24.6748 47.5897
rfemur -85.0665 -20.5017 6.40099
rtibia 101.469
rfoot -20.079 7.3142
rtoes -23.9762
lfemur -85.8881 14.7232 -16.7554
ltibia 102.994
lfoot -26.0089 -17.5834
ltoes -8.62408
1368
root 1.92548 11.5309 -4.4273 -170.24 228.746 -176.64
lowerback 34.1888 1.2205 0.949774
upperback 10.378 1.53712 3.68719
thorax -6.04166 0.410375 2.85384
lowerneck -12.0421 -0.381572 -9.58279
upperneck 32.1384 1.45689 -0.20106
head 12.6659 -0.647136 1.76544
rclavicle 2.22639e-014 5.725e-014
rhumerus -43.8951 48.2554 -75.9806
rradius 111.022
rwrist 50.8999
rhand -46.3024 12.649
rfingers 7.12502
rthumb -19.0365 -16.4394
lclavicle 2.22639e-014 5.725e-014
lhumerus -36.8468 -39.2368 87.1344
lradius 90.6531
lwrist -20.4977
lhand -52.4063 19.2935
lfingers 7.12502
lthumb -24.8969 47.6921
rfemur -85.031 -20.533 6.26053
rtibia 101.946
rfoot -20.0242 7.48311
rtoes -23.791
lfemur -85.9978 15.3136 -16.9562
ltibia 103.646
lfoot -26.499 -17.569
ltoes -11.7857
1369
root 1.95291 11.4561 -4.43187 -170.749 228.88 -176.71
lowerback 34.4032 1.38531 0.928929
upperback 10.5031 1.72407 3.72762
thorax -5.99404 0.491003 2.84146
lowerneck -11.9088 -0.448544 -9.77752
upperneck 32.0902 1.36614 -0.110276
head 12.6223 -0.694531 1.82038
rclavicle 4.6118e-014 -1.24042e-013
rhumerus -44.1249 47.8185 -75.8627
rradius 111.269
rwrist 51.1578
rhand -46.338 12.6185
rfingers 7.12502
rthumb -19.0707 -16.4665
lclavicle 4.6118e-014 -1.24042e-013
lhumerus -36.8451 -39.4634 87.2349
lradius 90.8095
lwrist -20.6755
lhand -52.4358 18.706
lfingers 7.12502
lthumb -24.9252 47.1007
rfemur -84.9954 -20.4648 6.054
rtibia 102.41
rfoot -19.9869 7.60035
rtoes -23.3626
lfemur -86.1414 16.036 -17.2942
ltibia 104.314
lfoot -26.2661 -18.2749
ltoes -10.1305
1370
root 1.98834 11.3976 -4.43951 -171.25 228.953 -176.712
lowerback 34.54 1.55036 0.917978
upperback 10.569 1.92669 3.83518
thorax -5.98645 0.580516 2.8887
lowerneck -11.7132 -0.531951 -10.1224
upperneck 32.095 1.27088 0.00876813
head 12.5894 -0.760275 1.9114
rclavicle 4.6118e-014 -1.59028e-015
rhumerus -44.475 47.4809 -75.6613
rradius 111.539
rwrist 51.2455
rhand -46.4767 12.5284
rfingers 7.12502
rthumb -19.2041 -16.5435
lclavicle 4.6118e-014 -1.59028e-015
lhumerus -36.9547 -39.6427 87.5922
lradius 90.9962
lwrist -20.81
lhand -52.5584 19.1103
lfingers 7.12502
lthumb -25.0426 47.4886
rfemur -84.9191 -20.5089 5.84366
rtibia 102.79
rfoot -19.9088 7.79374
rtoes -23.2321
lfemur -86.1664 16.3322 -17.4816
ltibia 104.84
lfoot -24.6157 -19.1935
ltoes -6.02544
1371
root 2.02179 11.3383 -4.4482 -171.444 228.981 -177.036
lowerback 34.5677 1.58711 1.05635
upperback 10.6223 2.01166 3.85812
thorax -5.93757 0.618888 2.80981
lowerneck -11.6846 -0.514905 -9.96826
upperneck 32.1694 1.30275 -0.148219
head 12.6151 -0.751527 1.82935
rclavicle -2.22639e-014 6.83819e-014
rhumerus -44.5906 47.2396 -75.7398
rradius 111.701
rwrist 51.2854
rhand -46.7003 12.3636
rfingers 7.12502
rthumb -19.4192 -16.6867
lclavicle -2.22639e-014 6.83819e-014
lhumerus -37.123 -39.7835 87.6779
lradius 91.1744
lwrist -20.6221
lhand -53.0469 19.6143
lfingers 7.12502
lthumb -25.5107 47.9265
rfemur -84.866 -20.4931 5.86893
rtibia 103.123
rfoot -19.8202 8.00129
rtoes -22.5515
lfemur -86.2347 16.534 -17.278
ltibia 105.329
lfoot -23.6154 -19.9459
ltoes -2.51685
1372
root 2.05679 11.2785 -4.45992 -171.894 228.98 -177.084
lowerback 34.6612 1.58513 0.923609
upperback 10.7054 1.95122 3.78229
thorax -5.87956 0.586796 2.82155
lowerneck -11.7224 -0.436882 -9.74798
upperneck 32.0948 1.37962 -0.197604
head 12.5861 -0.695894 1.78257
rclavicle -6.52014e-014 4.6118e-014
rhumerus -44.3643 47.1804 -75.8299
rradius 111.863
rwrist 51.2026
rhand -46.8966 12.088
rfingers 7.12502
rthumb -19.6079 -16.9432
lclavicle -6.52014e-014 4.6118e-014
lhumerus -37.1014 -39.7252 87.462
lradius 91.2463
lwrist -20.484
lhand -53.7185 19.9069
lfingers 7.12502
lthumb -26.1538 48.1255
rfemur -84.7925 -20.5125 5.67796
rtibia 103.459
rfoot -19.7319 8.08885
rtoes -22.3591
lfemur -86.1806 16.5362 -17.1423
ltibia 105.742
lfoot -23.3705 -20.2359
ltoes -0.945422
1373
root 2.09475 11.2312 -4.47802 -172.241 228.928 -177.257
lowerback 34.753 1.59902 0.751117
upperback 10.7624 1.90745 3.79265
thorax -5.85585 0.560465 2.93902
lowerneck -11.761 -0.330897 -9.53481
upperneck 32.0061 1.50329 -0.265163
head 12.5498 -0.622533 1.73626
rclavicle 5.48646e-014 1.74931e-014
rhumerus -44.2098 47.1291 -75.8785
rradius 111.968
rwrist 51.2386
rhand -46.9649 11.9288
rfingers 7.12502
rthumb -19.6735 -17.0957
lclavicle 5.48646e-014 1.74931e-014
lhumerus -37.1753 -39.6413 87.339
lradius 91.3935
lwrist -20.2389
lhand -54.6678 22.8399
lfingers 7.12502
lthumb -27.0624 50.9206
rfemur -84.5966 -20.4336 5.56822
rtibia 103.695
rfoot -19.6542 8.08875
rtoes -21.9356
lfemur -86.0862 16.4504 -16.9086
ltibia 106.056
lfoot -24.0553 -19.8988
ltoes -2.80649
